<svg xmlns="http://www.w3.org/2000/svg" viewBox="0 0 574.51 184.6"><defs><style>.cls-1{fill:#fff;}</style></defs><title>Asset 2</title><g id="Layer_2" data-name="Layer 2"><g id="Layer_1-2" data-name="Layer 1"><path class="cls-1" d="M0,96.3V0H28.82V86.46H39.91V0H68.73V96.3L54.25,111.11H14.49Z"/><path class="cls-1" d="M93.08,111.11V28.51H121v5.7l6.65-5.7h20.73l11.3,11.1v71.5h-27.9V50.39H121v60.72Z"/><path class="cls-1" d="M181.23,50.24V28.51h6.47V9.71h27.59v18.8h12.79V50.24H215.29V88.77h12.64v22.34h-29L187.7,99.86V50.24Z"/><path class="cls-1" d="M248,21.73V0h27.89V21.73Zm0,89.38V28.36h27.89v82.75Z"/><path class="cls-1" d="M297.58,50.24V28.51h6.47V9.71h27.59v18.8h12.79V50.24H331.64V88.77h12.64v22.34h-29L304.05,99.86V50.24Z"/><path class="cls-1" d="M364.31,111.11V0h27.58V111.11Z"/><path class="cls-1" d="M416.24,99.86V39.45l10.94-10.94h45.93L483.9,39.45V73.51L443.67,78.9V89.38h11.56v-6h27.9v17l-10.79,10.78H428.11ZM456,49H443.67V63.49L456,61.8Z"/><path class="cls-1" d="M508.24,100.17V39.3l11.1-10.79h20.81l6.47,6.32V0h27.89V111.11H546.62v-5.85l-6,5.85H518.88Zm38.38-49.93H536.14v39h10.48Z"/><path class="cls-1" d="M147.93,170.37a1.56,1.56,0,0,1,.48,1.19,1.64,1.64,0,0,1-1.7,1.7H126.48a1.64,1.64,0,0,1-1.7-1.7V135.28a1.62,1.62,0,0,1,.51-1.22,1.82,1.82,0,0,1,1.3-.48,1.76,1.76,0,0,1,1.25.48,1.62,1.62,0,0,1,.51,1.22v34.64h18.36A1.72,1.72,0,0,1,147.93,170.37Z"/><path class="cls-1" d="M178.06,158.27a1.69,1.69,0,0,1-1.19.48H155.44a13,13,0,0,0,1.39,6.09,10.36,10.36,0,0,0,4,4.25,11.54,11.54,0,0,0,6.09,1.56,10.23,10.23,0,0,0,4.87-1.13,10.08,10.08,0,0,0,3.46-2.89,1.92,1.92,0,0,1,1.19-.51,1.56,1.56,0,0,1,1.48,1.47,1.65,1.65,0,0,1-.57,1.19,14.15,14.15,0,0,1-4.56,3.63,12.59,12.59,0,0,1-5.81,1.42,15.6,15.6,0,0,1-7.71-1.87,13.31,13.31,0,0,1-5.22-5.25,15.83,15.83,0,0,1-1.87-7.79,17.23,17.23,0,0,1,1.84-8.13,13.3,13.3,0,0,1,4.91-5.33,12.4,12.4,0,0,1,6.52-1.84,13.42,13.42,0,0,1,6.37,1.58,12.57,12.57,0,0,1,4.85,4.65,14,14,0,0,1,1.93,7.26A1.54,1.54,0,0,1,178.06,158.27Zm-18.74-9.1a10.5,10.5,0,0,0-3.6,6.52h19.33v-.45a8.85,8.85,0,0,0-1.7-4.45,9.12,9.12,0,0,0-3.54-2.89,10.16,10.16,0,0,0-4.39-1A9.51,9.51,0,0,0,159.32,149.17Z"/><path class="cls-1" d="M210.56,144.81a1.74,1.74,0,0,1,.48,1.24v25.51a1.64,1.64,0,0,1-1.7,1.7,1.66,1.66,0,0,1-1.7-1.7v-3.8a11.83,11.83,0,0,1-4.25,4.31,11.52,11.52,0,0,1-6.18,1.76,12.17,12.17,0,0,1-6.83-2,13.65,13.65,0,0,1-4.76-5.44,17.12,17.12,0,0,1-1.73-7.76,16.74,16.74,0,0,1,1.76-7.74,13.49,13.49,0,0,1,4.79-5.36,12.3,12.3,0,0,1,6.72-1.92,12.14,12.14,0,0,1,6.23,1.64,10.8,10.8,0,0,1,4.25,4.31v-3.52a1.7,1.7,0,0,1,.49-1.24,1.7,1.7,0,0,1,2.43,0Zm-7.7,24.28a10.56,10.56,0,0,0,3.68-4.3,13.94,13.94,0,0,0,1.33-6.15,13.42,13.42,0,0,0-1.33-6,10.63,10.63,0,0,0-3.68-4.28,9.86,9.86,0,0,0-10.6,0,10.47,10.47,0,0,0-3.69,4.22,13.57,13.57,0,0,0-1.33,6.1,14.21,14.21,0,0,0,1.3,6.15,10.3,10.3,0,0,0,3.66,4.3,9.89,9.89,0,0,0,10.66,0Z"/><path class="cls-1" d="M235.53,144.07a1.45,1.45,0,0,1,.91,1.36,1.78,1.78,0,0,1-.45,1.27,1.43,1.43,0,0,1-1.08.49,4.43,4.43,0,0,1-1.11-.29,4.77,4.77,0,0,0-1.56-.28,6.79,6.79,0,0,0-4.16,1.61,12.52,12.52,0,0,0-3.4,4.17,11,11,0,0,0-1.33,5.16v14a1.66,1.66,0,0,1-1.71,1.7,1.66,1.66,0,0,1-1.7-1.7V146.17a1.66,1.66,0,0,1,1.7-1.7,1.66,1.66,0,0,1,1.71,1.7v5a12.87,12.87,0,0,1,3.94-5.35,9.75,9.75,0,0,1,6.2-2.18A4.5,4.5,0,0,1,235.53,144.07Z"/><path class="cls-1" d="M263.16,146.7a12.72,12.72,0,0,1,2.47,8.2v16.66a1.61,1.61,0,0,1-.51,1.22,1.69,1.69,0,0,1-1.19.48,1.64,1.64,0,0,1-1.7-1.7v-16.5a9.34,9.34,0,0,0-1.84-6q-1.84-2.29-5.7-2.29a10.12,10.12,0,0,0-8.16,4.17,6.86,6.86,0,0,0-1.36,4.1v16.5a1.7,1.7,0,1,1-3.4,0V146.17a1.7,1.7,0,1,1,3.4,0v3.11a12.06,12.06,0,0,1,4.39-4.05,11.76,11.76,0,0,1,5.87-1.61Q260.7,143.62,263.16,146.7Z"/><path class="cls-1" d="M274.36,139.45a1.94,1.94,0,0,1-.63-1.56v-.57a1.9,1.9,0,0,1,.66-1.56,2.76,2.76,0,0,1,1.78-.53c1.51,0,2.27.7,2.27,2.09v.57a2,2,0,0,1-.6,1.56,2.46,2.46,0,0,1-1.72.54A2.59,2.59,0,0,1,274.36,139.45Zm3,33.33a1.78,1.78,0,0,1-2.43,0,1.66,1.66,0,0,1-.48-1.22V145.49a1.64,1.64,0,0,1,1.7-1.7,1.64,1.64,0,0,1,1.21.48,1.67,1.67,0,0,1,.49,1.22v26.07A1.67,1.67,0,0,1,277.33,172.78Z"/><path class="cls-1" d="M308.06,146.7a12.78,12.78,0,0,1,2.46,8.2v16.66a1.61,1.61,0,0,1-.51,1.22,1.69,1.69,0,0,1-1.19.48,1.64,1.64,0,0,1-1.7-1.7v-16.5a9.34,9.34,0,0,0-1.84-6q-1.84-2.29-5.7-2.29a10.12,10.12,0,0,0-8.16,4.17,6.86,6.86,0,0,0-1.36,4.1v16.5a1.7,1.7,0,1,1-3.4,0V146.17a1.7,1.7,0,1,1,3.4,0v3.11a12.06,12.06,0,0,1,4.39-4.05,11.76,11.76,0,0,1,5.87-1.61Q305.58,143.62,308.06,146.7Z"/><path class="cls-1" d="M345.13,144.78a1.71,1.71,0,0,1,.48,1.27V170.6a14.68,14.68,0,0,1-1.85,7.56,12.11,12.11,0,0,1-5,4.79,15.81,15.81,0,0,1-7.34,1.65,18.4,18.4,0,0,1-4.17-.51,16.62,16.62,0,0,1-3.74-1.31c-1-.53-1.63-1.07-1.78-1.64a1.25,1.25,0,0,1-.4-.91,1,1,0,0,1,.51-.9.88.88,0,0,1,.57-.18,4.62,4.62,0,0,1,1.3.4l1.19.51a18.23,18.23,0,0,0,6.58,1.36,10.67,10.67,0,0,0,7.9-2.86,10.46,10.46,0,0,0,2.87-7.74v-3.51a10.47,10.47,0,0,1-4.48,4.79,13.21,13.21,0,0,1-13.46-.23,13.66,13.66,0,0,1-5-5.41,17.37,17.37,0,0,1,0-15.48,13.66,13.66,0,0,1,5-5.41,13,13,0,0,1,7-1.95,12.45,12.45,0,0,1,6.54,1.78,12,12,0,0,1,4.4,4.28v-3.63a1.74,1.74,0,0,1,.48-1.24,1.61,1.61,0,0,1,1.22-.51A1.67,1.67,0,0,1,345.13,144.78Zm-7.94,24.37A10.25,10.25,0,0,0,341,164.9a14.5,14.5,0,0,0,0-12.39,10.29,10.29,0,0,0-3.85-4.22,10.53,10.53,0,0,0-5.58-1.5,10.12,10.12,0,0,0-5.53,1.56,10.65,10.65,0,0,0-3.85,4.28,13.06,13.06,0,0,0-1.39,6.06,13.19,13.19,0,0,0,1.39,6.12,10.58,10.58,0,0,0,3.85,4.28,10.12,10.12,0,0,0,5.53,1.56A10.53,10.53,0,0,0,337.19,169.15Z"/><path class="cls-1" d="M400.59,171.67a1.51,1.51,0,0,1-.51,1.19,1.71,1.71,0,0,1-1.19.46,1.67,1.67,0,0,1-1-.31,2,2,0,0,1-.66-.83L393,161.81H374.57l-4.19,10.37a1.71,1.71,0,0,1-2.72.74,1.63,1.63,0,0,1-.46-1.08v-.17a1.69,1.69,0,0,1,.06-.51l15-36.61a1.69,1.69,0,0,1,1.7-1.14,1.72,1.72,0,0,1,1,.31,2.06,2.06,0,0,1,.65.83L400.47,171A3,3,0,0,1,400.59,171.67Zm-24.71-13.2h15.75l-7.93-19.39Z"/><path class="cls-1" d="M427.29,146a13.08,13.08,0,0,1,4.79,5.27,17.63,17.63,0,0,1,0,15.19,13.4,13.4,0,0,1-4.77,5.3,12.32,12.32,0,0,1-6.77,1.93,12.06,12.06,0,0,1-6-1.56,12.28,12.28,0,0,1-4.39-4.17v15a1.7,1.7,0,1,1-3.4,0v-37a1.76,1.76,0,0,1,.48-1.25,1.71,1.71,0,0,1,2.44,0,1.76,1.76,0,0,1,.48,1.25v3.85a10.58,10.58,0,0,1,4.25-4.19,12.46,12.46,0,0,1,6.12-1.53A12.65,12.65,0,0,1,427.29,146Zm-1.79,23a10.17,10.17,0,0,0,3.68-4.17,13.17,13.17,0,0,0,1.34-6,13,13,0,0,0-1.34-5.93,10.25,10.25,0,0,0-3.68-4.13,9.59,9.59,0,0,0-5.3-1.51,9.93,9.93,0,0,0-5.38,1.48,9.82,9.82,0,0,0-3.69,4.11,13.27,13.27,0,0,0-1.3,6,13.42,13.42,0,0,0,1.3,6,10,10,0,0,0,3.69,4.17,9.86,9.86,0,0,0,5.38,1.5A9.66,9.66,0,0,0,425.5,169Z"/><path class="cls-1" d="M461.41,146a13.08,13.08,0,0,1,4.79,5.27,17.54,17.54,0,0,1,0,15.19,13.37,13.37,0,0,1-4.76,5.3,12.35,12.35,0,0,1-6.78,1.93,12,12,0,0,1-6-1.56,12.23,12.23,0,0,1-4.4-4.17v15a1.7,1.7,0,1,1-3.4,0v-37a1.76,1.76,0,0,1,.48-1.25,1.71,1.71,0,0,1,2.44,0,1.76,1.76,0,0,1,.48,1.25v3.85a10.58,10.58,0,0,1,4.25-4.19,13.08,13.08,0,0,1,12.93.37Zm-1.79,23a10.26,10.26,0,0,0,3.69-4.17,13.3,13.3,0,0,0,1.33-6,13.09,13.09,0,0,0-1.33-5.93,10.34,10.34,0,0,0-3.69-4.13,9.57,9.57,0,0,0-5.3-1.51,9.93,9.93,0,0,0-5.38,1.48,9.82,9.82,0,0,0-3.69,4.11,13.27,13.27,0,0,0-1.3,6,13.42,13.42,0,0,0,1.3,6,10,10,0,0,0,3.69,4.17,9.86,9.86,0,0,0,5.38,1.5A9.64,9.64,0,0,0,459.62,169Z"/></g></g></svg>